# xmcd
#
# Track frame offsets: 
#        150
#        14180
#        29224
#        34976
#        48601
#        60057
#        66613
#        72723
#        75621
#        80884
#        84534
#        88620
#        107682
#        114946
#
# Disc length: 1638 seconds
#
# Revision: 0
# Processed by: cddbd v1.5.2PL0 Copyright (c) Steve Scherf et al.
# Submitted via: ExactAudioCopyFreeDBPlugin 1.0
#
DISCID=c906640e
DTITLE=Leadbelly - The Gallis Pole
DYEAR=2003
DGENRE=Blues
TTITLE0=The Gallis Pole
TTITLE1=Bourgeois Blues
TTITLE2=Big Fat Mama
TTITLE3=De Kalb Blues
TTITLE4=Good Night Irene
TTITLE5=Noted Rider
TTITLE6=Whoa, Buck!
TTITLE7=Julie Ann Johnson
TTITLE8=Bottle It Up And Go
TTITLE9=Bring Me Li'l Water Silvy
TTITLE10=Line 'Em
TTITLE11=John Hardy
TTITLE12=Poor Howard
TTITLE13=Green Corn
EXTD=
EXTT0=
EXTT1=
EXTT2=
EXTT3=
EXTT4=
EXTT5=
EXTT6=
EXTT7=
EXTT8=
EXTT9=
EXTT10=
EXTT11=
EXTT12=
EXTT13=
PLAYORDER=
